<svg width="37" height="34" viewBox="0 0 37 34" fill="none" xmlns="http://www.w3.org/2000/svg">
<path d="M36.0406 11.5562L19.3484 0.471769C19.1197 0.326927 18.8543 0.25 18.5833 0.25C18.3123 0.25 18.047 0.326927 17.8183 0.471769L1.12602 11.5562C0.932078 11.6816 0.77303 11.8536 0.66361 12.0565C0.554189 12.2593 0.497934 12.4864 0.500058 12.7166V30.7289C0.500058 31.4638 0.793165 32.1687 1.3149 32.6884C1.83663 33.208 2.54426 33.5 3.2821 33.5H33.8846C34.6224 33.5 35.33 33.208 35.8518 32.6884C36.3735 32.1687 36.6666 31.4638 36.6666 30.7289V12.7166C36.6687 12.4864 36.6125 12.2593 36.5031 12.0565C36.3936 11.8536 36.2346 11.6816 36.0406 11.5562ZM3.2821 30.7289V14.8178L14.7406 23.5413C14.9734 23.7091 15.2531 23.8 15.5405 23.8011H21.6262C21.9135 23.8 22.1933 23.7091 22.426 23.5413L33.8846 14.8178V30.7289H3.2821Z" fill="#BBF4D9"/>
</svg>
